<?xml version="1.0" encoding="UTF-8" standalone="no"?>
<!DOCTYPE svg PUBLIC "-//W3C//DTD SVG 1.1//EN"
 "http://www.w3.org/Graphics/SVG/1.1/DTD/svg11.dtd">
<!-- Generated by graphviz version 2.43.0 (0)
 -->
<!-- Title: %3 Pages: 1 -->
<svg width="260pt" height="260pt"
 viewBox="0.00 0.00 260.40 260.00" xmlns="http://www.w3.org/2000/svg" xmlns:xlink="http://www.w3.org/1999/xlink">
<g id="graph0" class="graph" transform="scale(1 1) rotate(0) translate(4 256)">
<title>%3</title>
<!-- Integral(Pow(Pow(Symbol(&#39;x&#39;), Integer(&#45;1)), Rational(1, 2)), Tuple(Symbol(&#39;x&#39;)))_() -->
<g id="node1" class="node">
<title>Integral(Pow(Pow(Symbol(&#39;x&#39;), Integer(&#45;1)), Rational(1, 2)), Tuple(Symbol(&#39;x&#39;)))_()</title>
<ellipse fill="none" stroke="black" cx="174" cy="-234" rx="48.19" ry="18"/>
<text text-anchor="middle" x="174" y="-230.3" font-family="Times,serif" font-size="14.00">Integral</text>
</g>
<!-- Pow(Pow(Symbol(&#39;x&#39;), Integer(&#45;1)), Rational(1, 2))_(0,) -->
<g id="node2" class="node">
<title>Pow(Pow(Symbol(&#39;x&#39;), Integer(&#45;1)), Rational(1, 2))_(0,)</title>
<ellipse fill="none" stroke="black" cx="132" cy="-162" rx="29.8" ry="18"/>
<text text-anchor="middle" x="132" y="-158.3" font-family="Times,serif" font-size="14.00">Pow</text>
</g>
<!-- Integral(Pow(Pow(Symbol(&#39;x&#39;), Integer(&#45;1)), Rational(1, 2)), Tuple(Symbol(&#39;x&#39;)))_()&#45;&gt;Pow(Pow(Symbol(&#39;x&#39;), Integer(&#45;1)), Rational(1, 2))_(0,) -->
<g id="edge1" class="edge">
<title>Integral(Pow(Pow(Symbol(&#39;x&#39;), Integer(&#45;1)), Rational(1, 2)), Tuple(Symbol(&#39;x&#39;)))_()&#45;&gt;Pow(Pow(Symbol(&#39;x&#39;), Integer(&#45;1)), Rational(1, 2))_(0,)</title>
<path fill="none" stroke="black" d="M163.83,-216.05C158.81,-207.68 152.64,-197.4 147.08,-188.13"/>
<polygon fill="black" stroke="black" points="149.93,-186.08 141.78,-179.31 143.93,-189.68 149.93,-186.08"/>
</g>
<!-- Tuple(Symbol(&#39;x&#39;))_(1,) -->
<g id="node7" class="node">
<title>Tuple(Symbol(&#39;x&#39;))_(1,)</title>
<ellipse fill="none" stroke="blue" cx="216" cy="-162" rx="36.29" ry="18"/>
<text text-anchor="middle" x="216" y="-158.3" font-family="Times,serif" font-size="14.00">Tuple</text>
</g>
<!-- Integral(Pow(Pow(Symbol(&#39;x&#39;), Integer(&#45;1)), Rational(1, 2)), Tuple(Symbol(&#39;x&#39;)))_()&#45;&gt;Tuple(Symbol(&#39;x&#39;))_(1,) -->
<g id="edge2" class="edge">
<title>Integral(Pow(Pow(Symbol(&#39;x&#39;), Integer(&#45;1)), Rational(1, 2)), Tuple(Symbol(&#39;x&#39;)))_()&#45;&gt;Tuple(Symbol(&#39;x&#39;))_(1,)</title>
<path fill="none" stroke="black" d="M184.17,-216.05C189.12,-207.8 195.18,-197.7 200.68,-188.54"/>
<polygon fill="black" stroke="black" points="203.78,-190.16 205.93,-179.79 197.78,-186.56 203.78,-190.16"/>
</g>
<!-- Pow(Symbol(&#39;x&#39;), Integer(&#45;1))_(0, 0) -->
<g id="node3" class="node">
<title>Pow(Symbol(&#39;x&#39;), Integer(&#45;1))_(0, 0)</title>
<ellipse fill="none" stroke="black" cx="63" cy="-90" rx="29.8" ry="18"/>
<text text-anchor="middle" x="63" y="-86.3" font-family="Times,serif" font-size="14.00">Pow</text>
</g>
<!-- Pow(Pow(Symbol(&#39;x&#39;), Integer(&#45;1)), Rational(1, 2))_(0,)&#45;&gt;Pow(Symbol(&#39;x&#39;), Integer(&#45;1))_(0, 0) -->
<g id="edge3" class="edge">
<title>Pow(Pow(Symbol(&#39;x&#39;), Integer(&#45;1)), Rational(1, 2))_(0,)&#45;&gt;Pow(Symbol(&#39;x&#39;), Integer(&#45;1))_(0, 0)</title>
<path fill="none" stroke="black" d="M117.37,-146.15C107.94,-136.6 95.52,-123.99 84.93,-113.25"/>
<polygon fill="black" stroke="black" points="87.12,-110.49 77.61,-105.82 82.14,-115.4 87.12,-110.49"/>
</g>
<!-- Rational(1, 2)_(0, 1) -->
<g id="node6" class="node">
<title>Rational(1, 2)_(0, 1)</title>
<ellipse fill="none" stroke="black" cx="138" cy="-90" rx="27" ry="18"/>
<text text-anchor="middle" x="138" y="-86.3" font-family="Times,serif" font-size="14.00">1/2</text>
</g>
<!-- Pow(Pow(Symbol(&#39;x&#39;), Integer(&#45;1)), Rational(1, 2))_(0,)&#45;&gt;Rational(1, 2)_(0, 1) -->
<g id="edge4" class="edge">
<title>Pow(Pow(Symbol(&#39;x&#39;), Integer(&#45;1)), Rational(1, 2))_(0,)&#45;&gt;Rational(1, 2)_(0, 1)</title>
<path fill="none" stroke="black" d="M133.48,-143.7C134.14,-135.98 134.94,-126.71 135.68,-118.11"/>
<polygon fill="black" stroke="black" points="139.17,-118.37 136.53,-108.1 132.19,-117.77 139.17,-118.37"/>
</g>
<!-- Symbol(&#39;x&#39;)_(0, 0, 0) -->
<g id="node4" class="node">
<title>Symbol(&#39;x&#39;)_(0, 0, 0)</title>
<ellipse fill="none" stroke="black" cx="27" cy="-18" rx="27" ry="18"/>
<text text-anchor="middle" x="27" y="-14.3" font-family="Times,serif" font-size="14.00">x</text>
</g>
<!-- Pow(Symbol(&#39;x&#39;), Integer(&#45;1))_(0, 0)&#45;&gt;Symbol(&#39;x&#39;)_(0, 0, 0) -->
<g id="edge5" class="edge">
<title>Pow(Symbol(&#39;x&#39;), Integer(&#45;1))_(0, 0)&#45;&gt;Symbol(&#39;x&#39;)_(0, 0, 0)</title>
<path fill="none" stroke="black" d="M54.47,-72.41C50.16,-64.04 44.85,-53.71 40.05,-44.37"/>
<polygon fill="black" stroke="black" points="43.16,-42.76 35.47,-35.47 36.93,-45.96 43.16,-42.76"/>
</g>
<!-- Integer(&#45;1)_(0, 0, 1) -->
<g id="node5" class="node">
<title>Integer(&#45;1)_(0, 0, 1)</title>
<ellipse fill="none" stroke="black" cx="99" cy="-18" rx="27" ry="18"/>
<text text-anchor="middle" x="99" y="-14.3" font-family="Times,serif" font-size="14.00">&#45;1</text>
</g>
<!-- Pow(Symbol(&#39;x&#39;), Integer(&#45;1))_(0, 0)&#45;&gt;Integer(&#45;1)_(0, 0, 1) -->
<g id="edge6" class="edge">
<title>Pow(Symbol(&#39;x&#39;), Integer(&#45;1))_(0, 0)&#45;&gt;Integer(&#45;1)_(0, 0, 1)</title>
<path fill="none" stroke="black" d="M71.53,-72.41C75.84,-64.04 81.15,-53.71 85.95,-44.37"/>
<polygon fill="black" stroke="black" points="89.07,-45.96 90.53,-35.47 82.84,-42.76 89.07,-45.96"/>
</g>
<!-- Symbol(&#39;x&#39;)_(1, 0) -->
<g id="node8" class="node">
<title>Symbol(&#39;x&#39;)_(1, 0)</title>
<ellipse fill="none" stroke="black" cx="216" cy="-90" rx="27" ry="18"/>
<text text-anchor="middle" x="216" y="-86.3" font-family="Times,serif" font-size="14.00">x</text>
</g>
<!-- Tuple(Symbol(&#39;x&#39;))_(1,)&#45;&gt;Symbol(&#39;x&#39;)_(1, 0) -->
<g id="edge7" class="edge">
<title>Tuple(Symbol(&#39;x&#39;))_(1,)&#45;&gt;Symbol(&#39;x&#39;)_(1, 0)</title>
<path fill="none" stroke="black" d="M216,-143.7C216,-135.98 216,-126.71 216,-118.11"/>
<polygon fill="black" stroke="black" points="219.5,-118.1 216,-108.1 212.5,-118.1 219.5,-118.1"/>
</g>
</g>
</svg>
