<?xml version="1.0" encoding="UTF-8" standalone="no"?>
<!DOCTYPE svg PUBLIC "-//W3C//DTD SVG 1.1//EN"
 "http://www.w3.org/Graphics/SVG/1.1/DTD/svg11.dtd">
<!-- Generated by graphviz version 2.43.0 (0)
 -->
<!-- Title: %3 Pages: 1 -->
<svg width="312pt" height="188pt"
 viewBox="0.00 0.00 311.79 188.00" xmlns="http://www.w3.org/2000/svg" xmlns:xlink="http://www.w3.org/1999/xlink">
<g id="graph0" class="graph" transform="scale(1 1) rotate(0) translate(4 184)">
<title>%3</title>
<!-- Add(Symbol(&#39;x&#39;), Mul(Integer(&#45;1), Symbol(&#39;y&#39;)))_() -->
<g id="node1" class="node">
<title>Add(Symbol(&#39;x&#39;), Mul(Integer(&#45;1), Symbol(&#39;y&#39;)))_()</title>
<ellipse fill="none" stroke="black" cx="116.39" cy="-162" rx="28.7" ry="18"/>
<text text-anchor="middle" x="116.39" y="-158.3" font-family="Times,serif" font-size="14.00">Add</text>
</g>
<!-- Symbol(&#39;x&#39;)_(0,) -->
<g id="node2" class="node">
<title>Symbol(&#39;x&#39;)_(0,)</title>
<ellipse fill="none" stroke="black" cx="62.39" cy="-90" rx="62.29" ry="18"/>
<text text-anchor="middle" x="62.39" y="-86.3" font-family="Times,serif" font-size="14.00">Symbol(&#39;x&#39;)</text>
</g>
<!-- Add(Symbol(&#39;x&#39;), Mul(Integer(&#45;1), Symbol(&#39;y&#39;)))_()&#45;&gt;Symbol(&#39;x&#39;)_(0,) -->
<g id="edge1" class="edge">
<title>Add(Symbol(&#39;x&#39;), Mul(Integer(&#45;1), Symbol(&#39;y&#39;)))_()&#45;&gt;Symbol(&#39;x&#39;)_(0,)</title>
<path fill="none" stroke="black" d="M104.41,-145.46C97.71,-136.78 89.2,-125.75 81.6,-115.89"/>
<polygon fill="black" stroke="black" points="84.36,-113.74 75.48,-107.96 78.82,-118.02 84.36,-113.74"/>
</g>
<!-- Mul(Integer(&#45;1), Symbol(&#39;y&#39;))_(1,) -->
<g id="node3" class="node">
<title>Mul(Integer(&#45;1), Symbol(&#39;y&#39;))_(1,)</title>
<ellipse fill="none" stroke="black" cx="171.39" cy="-90" rx="28.7" ry="18"/>
<text text-anchor="middle" x="171.39" y="-86.3" font-family="Times,serif" font-size="14.00">Mul</text>
</g>
<!-- Add(Symbol(&#39;x&#39;), Mul(Integer(&#45;1), Symbol(&#39;y&#39;)))_()&#45;&gt;Mul(Integer(&#45;1), Symbol(&#39;y&#39;))_(1,) -->
<g id="edge2" class="edge">
<title>Add(Symbol(&#39;x&#39;), Mul(Integer(&#45;1), Symbol(&#39;y&#39;)))_()&#45;&gt;Mul(Integer(&#45;1), Symbol(&#39;y&#39;))_(1,)</title>
<path fill="none" stroke="black" d="M128.6,-145.46C135.72,-136.4 144.85,-124.79 152.84,-114.61"/>
<polygon fill="black" stroke="black" points="155.8,-116.52 159.22,-106.49 150.29,-112.19 155.8,-116.52"/>
</g>
<!-- Integer(&#45;1)_(1, 0) -->
<g id="node4" class="node">
<title>Integer(&#45;1)_(1, 0)</title>
<ellipse fill="none" stroke="black" cx="100.39" cy="-18" rx="60.39" ry="18"/>
<text text-anchor="middle" x="100.39" y="-14.3" font-family="Times,serif" font-size="14.00">Integer(&#45;1)</text>
</g>
<!-- Mul(Integer(&#45;1), Symbol(&#39;y&#39;))_(1,)&#45;&gt;Integer(&#45;1)_(1, 0) -->
<g id="edge3" class="edge">
<title>Mul(Integer(&#45;1), Symbol(&#39;y&#39;))_(1,)&#45;&gt;Integer(&#45;1)_(1, 0)</title>
<path fill="none" stroke="black" d="M156.68,-74.5C147.31,-65.26 134.95,-53.07 124.2,-42.47"/>
<polygon fill="black" stroke="black" points="126.66,-39.98 117.08,-35.45 121.74,-44.96 126.66,-39.98"/>
</g>
<!-- Symbol(&#39;y&#39;)_(1, 1) -->
<g id="node5" class="node">
<title>Symbol(&#39;y&#39;)_(1, 1)</title>
<ellipse fill="none" stroke="black" cx="241.39" cy="-18" rx="62.29" ry="18"/>
<text text-anchor="middle" x="241.39" y="-14.3" font-family="Times,serif" font-size="14.00">Symbol(&#39;y&#39;)</text>
</g>
<!-- Mul(Integer(&#45;1), Symbol(&#39;y&#39;))_(1,)&#45;&gt;Symbol(&#39;y&#39;)_(1, 1) -->
<g id="edge4" class="edge">
<title>Mul(Integer(&#45;1), Symbol(&#39;y&#39;))_(1,)&#45;&gt;Symbol(&#39;y&#39;)_(1, 1)</title>
<path fill="none" stroke="black" d="M186.24,-74.15C195.28,-65.11 207.05,-53.35 217.39,-43.01"/>
<polygon fill="black" stroke="black" points="220.01,-45.33 224.61,-35.79 215.06,-40.39 220.01,-45.33"/>
</g>
</g>
</svg>
