<?xml version="1.0" encoding="UTF-8" standalone="no"?>
<!DOCTYPE svg PUBLIC "-//W3C//DTD SVG 1.1//EN"
 "http://www.w3.org/Graphics/SVG/1.1/DTD/svg11.dtd">
<!-- Generated by graphviz version 2.38.0 (20140413.2041)
 -->
<!-- Title: %3 Pages: 1 -->
<svg width="260pt" height="260pt"
 viewBox="0.00 0.00 260.40 260.00" xmlns="http://www.w3.org/2000/svg" xmlns:xlink="http://www.w3.org/1999/xlink">
<g id="graph0" class="graph" transform="scale(1 1) rotate(0) translate(4 256)">
<title>%3</title>
<!-- Integral(Pow(Pow(Symbol(&#39;x&#39;), Integer(&#45;1)), Rational(1, 2)), Tuple(Symbol(&#39;x&#39;)))_() -->
<g id="node1" class="node"><title>Integral(Pow(Pow(Symbol(&#39;x&#39;), Integer(&#45;1)), Rational(1, 2)), Tuple(Symbol(&#39;x&#39;)))_()</title>
<ellipse fill="none" stroke="black" cx="174" cy="-234" rx="48.1917" ry="18"/>
<text text-anchor="middle" x="174" y="-230.3" font-family="Times,serif" font-size="14.00">Integral</text>
</g>
<!-- Pow(Pow(Symbol(&#39;x&#39;), Integer(&#45;1)), Rational(1, 2))_(0,) -->
<g id="node2" class="node"><title>Pow(Pow(Symbol(&#39;x&#39;), Integer(&#45;1)), Rational(1, 2))_(0,)</title>
<ellipse fill="none" stroke="black" cx="132" cy="-162" rx="29.795" ry="18"/>
<text text-anchor="middle" x="132" y="-158.3" font-family="Times,serif" font-size="14.00">Pow</text>
</g>
<!-- Integral(Pow(Pow(Symbol(&#39;x&#39;), Integer(&#45;1)), Rational(1, 2)), Tuple(Symbol(&#39;x&#39;)))_()&#45;&gt;Pow(Pow(Symbol(&#39;x&#39;), Integer(&#45;1)), Rational(1, 2))_(0,) -->
<g id="edge1" class="edge"><title>Integral(Pow(Pow(Symbol(&#39;x&#39;), Integer(&#45;1)), Rational(1, 2)), Tuple(Symbol(&#39;x&#39;)))_()&#45;&gt;Pow(Pow(Symbol(&#39;x&#39;), Integer(&#45;1)), Rational(1, 2))_(0,)</title>
<path fill="none" stroke="black" d="M163.833,-216.055C158.808,-207.679 152.642,-197.404 147.08,-188.134"/>
<polygon fill="black" stroke="black" points="149.93,-186.081 141.784,-179.307 143.928,-189.683 149.93,-186.081"/>
</g>
<!-- Tuple(Symbol(&#39;x&#39;))_(1,) -->
<g id="node7" class="node"><title>Tuple(Symbol(&#39;x&#39;))_(1,)</title>
<ellipse fill="none" stroke="blue" cx="216" cy="-162" rx="36.2938" ry="18"/>
<text text-anchor="middle" x="216" y="-158.3" font-family="Times,serif" font-size="14.00">Tuple</text>
</g>
<!-- Integral(Pow(Pow(Symbol(&#39;x&#39;), Integer(&#45;1)), Rational(1, 2)), Tuple(Symbol(&#39;x&#39;)))_()&#45;&gt;Tuple(Symbol(&#39;x&#39;))_(1,) -->
<g id="edge2" class="edge"><title>Integral(Pow(Pow(Symbol(&#39;x&#39;), Integer(&#45;1)), Rational(1, 2)), Tuple(Symbol(&#39;x&#39;)))_()&#45;&gt;Tuple(Symbol(&#39;x&#39;))_(1,)</title>
<path fill="none" stroke="black" d="M184.167,-216.055C189.12,-207.801 195.179,-197.701 200.677,-188.538"/>
<polygon fill="black" stroke="black" points="203.783,-190.165 205.927,-179.789 197.78,-186.563 203.783,-190.165"/>
</g>
<!-- Pow(Symbol(&#39;x&#39;), Integer(&#45;1))_(0, 0) -->
<g id="node3" class="node"><title>Pow(Symbol(&#39;x&#39;), Integer(&#45;1))_(0, 0)</title>
<ellipse fill="none" stroke="black" cx="63" cy="-90" rx="29.795" ry="18"/>
<text text-anchor="middle" x="63" y="-86.3" font-family="Times,serif" font-size="14.00">Pow</text>
</g>
<!-- Pow(Pow(Symbol(&#39;x&#39;), Integer(&#45;1)), Rational(1, 2))_(0,)&#45;&gt;Pow(Symbol(&#39;x&#39;), Integer(&#45;1))_(0, 0) -->
<g id="edge3" class="edge"><title>Pow(Pow(Symbol(&#39;x&#39;), Integer(&#45;1)), Rational(1, 2))_(0,)&#45;&gt;Pow(Symbol(&#39;x&#39;), Integer(&#45;1))_(0, 0)</title>
<path fill="none" stroke="black" d="M117.367,-146.155C107.944,-136.596 95.5226,-123.994 84.9315,-113.249"/>
<polygon fill="black" stroke="black" points="87.1247,-110.489 77.612,-105.824 82.1395,-115.403 87.1247,-110.489"/>
</g>
<!-- Rational(1, 2)_(0, 1) -->
<g id="node6" class="node"><title>Rational(1, 2)_(0, 1)</title>
<ellipse fill="none" stroke="black" cx="138" cy="-90" rx="27" ry="18"/>
<text text-anchor="middle" x="138" y="-86.3" font-family="Times,serif" font-size="14.00">1/2</text>
</g>
<!-- Pow(Pow(Symbol(&#39;x&#39;), Integer(&#45;1)), Rational(1, 2))_(0,)&#45;&gt;Rational(1, 2)_(0, 1) -->
<g id="edge4" class="edge"><title>Pow(Pow(Symbol(&#39;x&#39;), Integer(&#45;1)), Rational(1, 2))_(0,)&#45;&gt;Rational(1, 2)_(0, 1)</title>
<path fill="none" stroke="black" d="M133.483,-143.697C134.144,-135.983 134.939,-126.712 135.676,-118.112"/>
<polygon fill="black" stroke="black" points="139.167,-118.367 136.534,-108.104 132.193,-117.769 139.167,-118.367"/>
</g>
<!-- Symbol(&#39;x&#39;)_(0, 0, 0) -->
<g id="node4" class="node"><title>Symbol(&#39;x&#39;)_(0, 0, 0)</title>
<ellipse fill="none" stroke="black" cx="27" cy="-18" rx="27" ry="18"/>
<text text-anchor="middle" x="27" y="-14.3" font-family="Times,serif" font-size="14.00">x</text>
</g>
<!-- Pow(Symbol(&#39;x&#39;), Integer(&#45;1))_(0, 0)&#45;&gt;Symbol(&#39;x&#39;)_(0, 0, 0) -->
<g id="edge5" class="edge"><title>Pow(Symbol(&#39;x&#39;), Integer(&#45;1))_(0, 0)&#45;&gt;Symbol(&#39;x&#39;)_(0, 0, 0)</title>
<path fill="none" stroke="black" d="M54.4685,-72.411C50.1645,-64.0421 44.8508,-53.7098 40.0473,-44.3698"/>
<polygon fill="black" stroke="black" points="43.1563,-42.7621 35.4703,-35.4699 36.9313,-45.9636 43.1563,-42.7621"/>
</g>
<!-- Integer(&#45;1)_(0, 0, 1) -->
<g id="node5" class="node"><title>Integer(&#45;1)_(0, 0, 1)</title>
<ellipse fill="none" stroke="black" cx="99" cy="-18" rx="27" ry="18"/>
<text text-anchor="middle" x="99" y="-14.3" font-family="Times,serif" font-size="14.00">&#45;1</text>
</g>
<!-- Pow(Symbol(&#39;x&#39;), Integer(&#45;1))_(0, 0)&#45;&gt;Integer(&#45;1)_(0, 0, 1) -->
<g id="edge6" class="edge"><title>Pow(Symbol(&#39;x&#39;), Integer(&#45;1))_(0, 0)&#45;&gt;Integer(&#45;1)_(0, 0, 1)</title>
<path fill="none" stroke="black" d="M71.5315,-72.411C75.8355,-64.0421 81.1492,-53.7098 85.9527,-44.3698"/>
<polygon fill="black" stroke="black" points="89.0687,-45.9636 90.5297,-35.4699 82.8437,-42.7621 89.0687,-45.9636"/>
</g>
<!-- Symbol(&#39;x&#39;)_(1, 0) -->
<g id="node8" class="node"><title>Symbol(&#39;x&#39;)_(1, 0)</title>
<ellipse fill="none" stroke="black" cx="216" cy="-90" rx="27" ry="18"/>
<text text-anchor="middle" x="216" y="-86.3" font-family="Times,serif" font-size="14.00">x</text>
</g>
<!-- Tuple(Symbol(&#39;x&#39;))_(1,)&#45;&gt;Symbol(&#39;x&#39;)_(1, 0) -->
<g id="edge7" class="edge"><title>Tuple(Symbol(&#39;x&#39;))_(1,)&#45;&gt;Symbol(&#39;x&#39;)_(1, 0)</title>
<path fill="none" stroke="black" d="M216,-143.697C216,-135.983 216,-126.712 216,-118.112"/>
<polygon fill="black" stroke="black" points="219.5,-118.104 216,-108.104 212.5,-118.104 219.5,-118.104"/>
</g>
</g>
</svg>
