<?xml version="1.0" encoding="UTF-8" standalone="no"?>
<!DOCTYPE svg PUBLIC "-//W3C//DTD SVG 1.1//EN"
 "http://www.w3.org/Graphics/SVG/1.1/DTD/svg11.dtd">
<!-- Generated by graphviz version 2.38.0 (20140413.2041)
 -->
<!-- Title: %3 Pages: 1 -->
<svg width="248pt" height="260pt"
 viewBox="0.00 0.00 248.20 260.00" xmlns="http://www.w3.org/2000/svg" xmlns:xlink="http://www.w3.org/1999/xlink">
<g id="graph0" class="graph" transform="scale(1 1) rotate(0) translate(4 256)">
<title>%3</title>
<!-- Integral(Pow(Pow(Symbol(&#39;x&#39;), Integer(&#45;1)), Rational(1, 2)), Tuple(Symbol(&#39;x&#39;)))_() -->
<g id="node1" class="node"><title>Integral(Pow(Pow(Symbol(&#39;x&#39;), Integer(&#45;1)), Rational(1, 2)), Tuple(Symbol(&#39;x&#39;)))_()</title>
<ellipse fill="none" stroke="black" cx="171" cy="-234" rx="38.1938" ry="18"/>
<text text-anchor="middle" x="171" y="-230.3" font-family="Times,serif" font-size="14.00">Integral</text>
</g>
<!-- Pow(Pow(Symbol(&#39;x&#39;), Integer(&#45;1)), Rational(1, 2))_(0,) -->
<g id="node2" class="node"><title>Pow(Pow(Symbol(&#39;x&#39;), Integer(&#45;1)), Rational(1, 2))_(0,)</title>
<ellipse fill="none" stroke="black" cx="133" cy="-162" rx="27" ry="18"/>
<text text-anchor="middle" x="133" y="-158.3" font-family="Times,serif" font-size="14.00">Pow</text>
</g>
<!-- Integral(Pow(Pow(Symbol(&#39;x&#39;), Integer(&#45;1)), Rational(1, 2)), Tuple(Symbol(&#39;x&#39;)))_()&#45;&gt;Pow(Pow(Symbol(&#39;x&#39;), Integer(&#45;1)), Rational(1, 2))_(0,) -->
<g id="edge1" class="edge"><title>Integral(Pow(Pow(Symbol(&#39;x&#39;), Integer(&#45;1)), Rational(1, 2)), Tuple(Symbol(&#39;x&#39;)))_()&#45;&gt;Pow(Pow(Symbol(&#39;x&#39;), Integer(&#45;1)), Rational(1, 2))_(0,)</title>
<path fill="none" stroke="black" d="M161.995,-216.411C157.451,-208.042 151.842,-197.71 146.772,-188.37"/>
<polygon fill="black" stroke="black" points="149.788,-186.589 141.941,-179.47 143.636,-189.928 149.788,-186.589"/>
</g>
<!-- Tuple(Symbol(&#39;x&#39;))_(1,) -->
<g id="node7" class="node"><title>Tuple(Symbol(&#39;x&#39;))_(1,)</title>
<ellipse fill="none" stroke="blue" cx="209" cy="-162" rx="31.3957" ry="18"/>
<text text-anchor="middle" x="209" y="-158.3" font-family="Times,serif" font-size="14.00">Tuple</text>
</g>
<!-- Integral(Pow(Pow(Symbol(&#39;x&#39;), Integer(&#45;1)), Rational(1, 2)), Tuple(Symbol(&#39;x&#39;)))_()&#45;&gt;Tuple(Symbol(&#39;x&#39;))_(1,) -->
<g id="edge2" class="edge"><title>Integral(Pow(Pow(Symbol(&#39;x&#39;), Integer(&#45;1)), Rational(1, 2)), Tuple(Symbol(&#39;x&#39;)))_()&#45;&gt;Tuple(Symbol(&#39;x&#39;))_(1,)</title>
<path fill="none" stroke="black" d="M180.005,-216.411C184.549,-208.042 190.158,-197.71 195.228,-188.37"/>
<polygon fill="black" stroke="black" points="198.364,-189.928 200.059,-179.47 192.212,-186.589 198.364,-189.928"/>
</g>
<!-- Pow(Symbol(&#39;x&#39;), Integer(&#45;1))_(0, 0) -->
<g id="node3" class="node"><title>Pow(Symbol(&#39;x&#39;), Integer(&#45;1))_(0, 0)</title>
<ellipse fill="none" stroke="black" cx="63" cy="-90" rx="27" ry="18"/>
<text text-anchor="middle" x="63" y="-86.3" font-family="Times,serif" font-size="14.00">Pow</text>
</g>
<!-- Pow(Pow(Symbol(&#39;x&#39;), Integer(&#45;1)), Rational(1, 2))_(0,)&#45;&gt;Pow(Symbol(&#39;x&#39;), Integer(&#45;1))_(0, 0) -->
<g id="edge3" class="edge"><title>Pow(Pow(Symbol(&#39;x&#39;), Integer(&#45;1)), Rational(1, 2))_(0,)&#45;&gt;Pow(Symbol(&#39;x&#39;), Integer(&#45;1))_(0, 0)</title>
<path fill="none" stroke="black" d="M118.496,-146.496C108.735,-136.735 95.6897,-123.69 84.6999,-112.7"/>
<polygon fill="black" stroke="black" points="87.0314,-110.082 77.4855,-105.485 82.0817,-115.031 87.0314,-110.082"/>
</g>
<!-- Rational(1, 2)_(0, 1) -->
<g id="node6" class="node"><title>Rational(1, 2)_(0, 1)</title>
<ellipse fill="none" stroke="black" cx="135" cy="-90" rx="27" ry="18"/>
<text text-anchor="middle" x="135" y="-86.3" font-family="Times,serif" font-size="14.00">1/2</text>
</g>
<!-- Pow(Pow(Symbol(&#39;x&#39;), Integer(&#45;1)), Rational(1, 2))_(0,)&#45;&gt;Rational(1, 2)_(0, 1) -->
<g id="edge4" class="edge"><title>Pow(Pow(Symbol(&#39;x&#39;), Integer(&#45;1)), Rational(1, 2))_(0,)&#45;&gt;Rational(1, 2)_(0, 1)</title>
<path fill="none" stroke="black" d="M133.494,-143.697C133.715,-135.983 133.98,-126.712 134.225,-118.112"/>
<polygon fill="black" stroke="black" points="137.724,-118.2 134.511,-108.104 130.727,-118 137.724,-118.2"/>
</g>
<!-- Symbol(&#39;x&#39;)_(0, 0, 0) -->
<g id="node4" class="node"><title>Symbol(&#39;x&#39;)_(0, 0, 0)</title>
<ellipse fill="none" stroke="black" cx="27" cy="-18" rx="27" ry="18"/>
<text text-anchor="middle" x="27" y="-14.3" font-family="Times,serif" font-size="14.00">x</text>
</g>
<!-- Pow(Symbol(&#39;x&#39;), Integer(&#45;1))_(0, 0)&#45;&gt;Symbol(&#39;x&#39;)_(0, 0, 0) -->
<g id="edge5" class="edge"><title>Pow(Symbol(&#39;x&#39;), Integer(&#45;1))_(0, 0)&#45;&gt;Symbol(&#39;x&#39;)_(0, 0, 0)</title>
<path fill="none" stroke="black" d="M54.6504,-72.7646C50.2885,-64.2831 44.8531,-53.7144 39.9587,-44.1974"/>
<polygon fill="black" stroke="black" points="42.9904,-42.4395 35.3043,-35.1473 36.7654,-45.6409 42.9904,-42.4395"/>
</g>
<!-- Integer(&#45;1)_(0, 0, 1) -->
<g id="node5" class="node"><title>Integer(&#45;1)_(0, 0, 1)</title>
<ellipse fill="none" stroke="black" cx="99" cy="-18" rx="27" ry="18"/>
<text text-anchor="middle" x="99" y="-14.3" font-family="Times,serif" font-size="14.00">&#45;1</text>
</g>
<!-- Pow(Symbol(&#39;x&#39;), Integer(&#45;1))_(0, 0)&#45;&gt;Integer(&#45;1)_(0, 0, 1) -->
<g id="edge6" class="edge"><title>Pow(Symbol(&#39;x&#39;), Integer(&#45;1))_(0, 0)&#45;&gt;Integer(&#45;1)_(0, 0, 1)</title>
<path fill="none" stroke="black" d="M71.3496,-72.7646C75.7115,-64.2831 81.1469,-53.7144 86.0413,-44.1974"/>
<polygon fill="black" stroke="black" points="89.2346,-45.6409 90.6957,-35.1473 83.0096,-42.4395 89.2346,-45.6409"/>
</g>
<!-- Symbol(&#39;x&#39;)_(1, 0) -->
<g id="node8" class="node"><title>Symbol(&#39;x&#39;)_(1, 0)</title>
<ellipse fill="none" stroke="black" cx="209" cy="-90" rx="27" ry="18"/>
<text text-anchor="middle" x="209" y="-86.3" font-family="Times,serif" font-size="14.00">x</text>
</g>
<!-- Tuple(Symbol(&#39;x&#39;))_(1,)&#45;&gt;Symbol(&#39;x&#39;)_(1, 0) -->
<g id="edge7" class="edge"><title>Tuple(Symbol(&#39;x&#39;))_(1,)&#45;&gt;Symbol(&#39;x&#39;)_(1, 0)</title>
<path fill="none" stroke="black" d="M209,-143.697C209,-135.983 209,-126.712 209,-118.112"/>
<polygon fill="black" stroke="black" points="212.5,-118.104 209,-108.104 205.5,-118.104 212.5,-118.104"/>
</g>
</g>
</svg>
